<svg width="121" height="14" viewBox="0 0 121 14" fill="none" xmlns="http://www.w3.org/2000/svg">
<path d="M13.3333 6.35851V2.39184C13.3333 1.51684 12.96 1.16684 12.0325 1.16684H9.67583C8.74833 1.16684 8.375 1.51684 8.375 2.39184V6.35851C8.375 7.23351 8.74833 7.58351 9.67583 7.58351H12.0325C12.96 7.58351 13.3333 7.23351 13.3333 6.35851Z" stroke="#EB4C6B" stroke-width="0.875" stroke-linecap="round" stroke-linejoin="round"/>
<path d="M13.3333 11.6082V10.5582C13.3333 9.68316 12.96 9.33316 12.0325 9.33316H9.67583C8.74833 9.33316 8.375 9.68316 8.375 10.5582V11.6082C8.375 12.4832 8.74833 12.8332 9.67583 12.8332H12.0325C12.96 12.8332 13.3333 12.4832 13.3333 11.6082Z" stroke="#EB4C6B" stroke-width="0.875" stroke-linecap="round" stroke-linejoin="round"/>
<path d="M6.62435 7.64199V11.6087C6.62435 12.4837 6.25102 12.8337 5.32352 12.8337H2.96685C2.03935 12.8337 1.66602 12.4837 1.66602 11.6087V7.64199C1.66602 6.76699 2.03935 6.41699 2.96685 6.41699H5.32352C6.25102 6.41699 6.62435 6.76699 6.62435 7.64199Z" stroke="#EB4C6B" stroke-width="0.875" stroke-linecap="round" stroke-linejoin="round"/>
<path d="M6.62435 2.39199V3.44199C6.62435 4.31699 6.25102 4.66699 5.32352 4.66699H2.96685C2.03935 4.66699 1.66602 4.31699 1.66602 3.44199V2.39199C1.66602 1.51699 2.03935 1.16699 2.96685 1.16699H5.32352C6.25102 1.16699 6.62435 1.51699 6.62435 2.39199Z" stroke="#EB4C6B" stroke-width="0.875" stroke-linecap="round" stroke-linejoin="round"/>
<path d="M25.46 11V2.6H26.384V10.088H30.236V11H25.46ZM35.098 8.708V7.052C35.098 6.02 34.378 5.504 33.574 5.504C32.77 5.504 32.05 6.02 32.05 7.052V8.708C32.05 9.74 32.77 10.256 33.574 10.256C34.378 10.256 35.098 9.74 35.098 8.708ZM35.998 7.064V8.696C35.998 10.52 34.726 11.12 33.574 11.12C32.422 11.12 31.15 10.52 31.15 8.696V7.064C31.15 5.24 32.422 4.64 33.574 4.64C34.726 4.64 35.998 5.24 35.998 7.064ZM38.5344 4.808V5.456C38.8464 4.952 39.4944 4.7 40.0584 4.7H40.4544V5.564H40.0584C39.2544 5.564 38.5344 6.08 38.5344 7.112V11H37.6344V4.808H38.5344ZM43.7927 10.256C44.5007 10.256 45.1367 9.86 45.2807 9.056H46.2047C46.0487 10.604 44.8727 11.12 43.7927 11.12C42.6407 11.12 41.3687 10.52 41.3687 8.696V7.064C41.3687 5.24 42.6407 4.64 43.7927 4.64C44.9447 4.64 46.2167 5.24 46.2167 7.064V8.108H42.2687V8.708C42.2687 9.74 42.9887 10.256 43.7927 10.256ZM45.3167 7.28V7.052C45.3167 6.02 44.5967 5.504 43.7927 5.504C42.9887 5.504 42.2687 6.02 42.2687 7.052V7.28H45.3167ZM56.2305 11H55.3305V6.98C55.3305 6.056 54.6105 5.504 53.9025 5.504C53.1705 5.504 52.4625 6.056 52.4625 7.052V11H51.5625V6.98C51.5625 6.056 50.8425 5.504 50.1345 5.504C49.4025 5.504 48.6945 6.056 48.6945 7.052V11H47.7945V4.808H48.6945V5.396C48.9945 4.892 49.6785 4.64 50.1345 4.64C50.8305 4.64 51.5865 4.928 52.0065 5.612C52.4265 4.928 53.1945 4.64 53.8905 4.64C55.0065 4.64 56.2305 5.312 56.2305 7.064V11ZM61.5383 2.6V3.764H60.6383V2.6H61.5383ZM61.5383 4.808V11H60.6383V4.808H61.5383ZM65.7576 11.12C65.1936 11.12 64.5456 10.868 64.2336 10.364V13.208H63.3336V4.808H64.2336V5.396C64.5456 4.892 65.1936 4.64 65.7576 4.64C66.9096 4.64 68.1816 5.24 68.1816 7.064V8.696C68.1816 10.52 66.9096 11.12 65.7576 11.12ZM67.2816 8.708V7.052C67.2816 6.02 66.5616 5.504 65.7576 5.504C64.9536 5.504 64.2336 6.02 64.2336 7.052V8.708C64.2336 9.74 64.9536 10.256 65.7576 10.256C66.5616 10.256 67.2816 9.74 67.2816 8.708ZM73.8941 6.62H72.9701C72.8621 5.9 72.3821 5.504 71.6141 5.504C70.9421 5.504 70.4501 5.84 70.4501 6.404C70.4501 6.92 70.7981 7.148 71.3021 7.268L72.4661 7.556C73.4021 7.784 74.0501 8.252 74.0501 9.392C74.0501 10.616 73.1261 11.12 71.8661 11.12C70.5701 11.12 69.4781 10.52 69.3821 9.02H70.3061C70.3901 9.896 71.0381 10.256 71.8661 10.256C72.7301 10.256 73.1261 9.908 73.1381 9.368C73.1381 8.972 72.9581 8.624 72.2741 8.456L71.0621 8.156C70.3901 8 69.5381 7.544 69.5381 6.44C69.5381 5.3 70.4861 4.64 71.6261 4.64C72.8741 4.64 73.7981 5.24 73.8941 6.62ZM77.7665 11.12C76.7465 11.12 75.3785 10.568 75.3785 8.732V4.808H76.2785V8.672C76.2785 9.776 77.0345 10.256 77.7665 10.256C78.5225 10.256 79.2545 9.728 79.2545 8.708V4.808H80.1545V11H79.2545V10.364C78.9425 10.856 78.2945 11.12 77.7665 11.12ZM90.3907 11H89.4907V6.98C89.4907 6.056 88.7707 5.504 88.0627 5.504C87.3307 5.504 86.6227 6.056 86.6227 7.052V11H85.7227V6.98C85.7227 6.056 85.0027 5.504 84.2947 5.504C83.5627 5.504 82.8547 6.056 82.8547 7.052V11H81.9547V4.808H82.8547V5.396C83.1547 4.892 83.8387 4.64 84.2947 4.64C84.9907 4.64 85.7467 4.928 86.1667 5.612C86.5867 4.928 87.3547 4.64 88.0507 4.64C89.1667 4.64 90.3907 5.312 90.3907 7.064V11ZM97.0544 11.12C95.9024 11.12 94.6304 10.52 94.6304 8.696V7.064C94.6304 5.24 95.9024 4.64 97.0544 4.64C97.6184 4.64 98.2664 4.892 98.5784 5.396V2.6H99.4784V11H98.5784V10.364C98.2664 10.868 97.6184 11.12 97.0544 11.12ZM95.5304 7.052V8.708C95.5304 9.74 96.2504 10.256 97.0544 10.256C97.8584 10.256 98.5784 9.74 98.5784 8.708V7.052C98.5784 6.02 97.8584 5.504 97.0544 5.504C96.2504 5.504 95.5304 6.02 95.5304 7.052ZM105.059 8.708V7.052C105.059 6.02 104.339 5.504 103.535 5.504C102.731 5.504 102.011 6.02 102.011 7.052V8.708C102.011 9.74 102.731 10.256 103.535 10.256C104.339 10.256 105.059 9.74 105.059 8.708ZM105.959 7.064V8.696C105.959 10.52 104.687 11.12 103.535 11.12C102.383 11.12 101.111 10.52 101.111 8.696V7.064C101.111 5.24 102.383 4.64 103.535 4.64C104.687 4.64 105.959 5.24 105.959 7.064ZM108.471 2.6V9.596C108.471 9.992 108.615 10.136 109.047 10.136H109.239V11H109.047C107.895 11 107.571 10.58 107.571 9.524V2.6H108.471ZM114.422 8.708V7.052C114.422 6.02 113.702 5.504 112.898 5.504C112.094 5.504 111.374 6.02 111.374 7.052V8.708C111.374 9.74 112.094 10.256 112.898 10.256C113.702 10.256 114.422 9.74 114.422 8.708ZM115.322 7.064V8.696C115.322 10.52 114.05 11.12 112.898 11.12C111.746 11.12 110.474 10.52 110.474 8.696V7.064C110.474 5.24 111.746 4.64 112.898 4.64C114.05 4.64 115.322 5.24 115.322 7.064ZM117.859 4.808V5.456C118.171 4.952 118.819 4.7 119.383 4.7H119.779V5.564H119.383C118.579 5.564 117.859 6.08 117.859 7.112V11H116.959V4.808H117.859Z" fill="#EB4C6B"/>
</svg>
